<svg width="13" height="12" viewBox="0 0 13 12" fill="none" xmlns="http://www.w3.org/2000/svg">
<path fill-rule="evenodd" clip-rule="evenodd" d="M5.6438 4.4845H7.49181V5.4095C7.75802 4.8775 8.4407 4.3995 9.46622 4.3995C11.4322 4.3995 11.8989 5.4585 11.8989 7.4015V11H9.90857V7.844C9.90857 6.7375 9.64236 6.1135 8.96465 6.1135C8.02472 6.1135 7.63412 6.786 7.63412 7.8435V11H5.6438V4.4845V4.4845ZM2.23089 10.915H4.22121V4.3995H2.23089V10.915V10.915ZM4.50633 2.275C4.5064 2.44264 4.47331 2.60862 4.40899 2.76329C4.34467 2.91797 4.2504 3.05826 4.13165 3.176C3.89102 3.41631 3.56531 3.55083 3.22605 3.55C2.88739 3.54977 2.56243 3.4156 2.32145 3.1765C2.20313 3.05836 2.10917 2.91791 2.04496 2.76322C1.98075 2.60852 1.94755 2.44261 1.94727 2.275C1.94727 1.9365 2.08161 1.6125 2.32194 1.3735C2.56272 1.13408 2.88781 0.99985 3.22655 1C3.5659 1 3.89132 1.1345 4.13165 1.3735C4.37148 1.6125 4.50633 1.9365 4.50633 2.275Z" fill="#FAFAFF"/>
</svg>
